<svg width="24" height="24" viewBox="0 0 24 24" fill="none" xmlns="http://www.w3.org/2000/svg">
<path fill-rule="evenodd" clip-rule="evenodd" d="M10.3171 18.9188C10.1765 18.8811 10.1061 18.8623 10.0172 18.8182C9.37347 18.4995 9.26585 17.6257 9.81295 17.1603C9.88859 17.096 10.0808 16.9892 10.4654 16.7757C12.1801 15.8235 13.5216 14.2039 14.0694 12.1596C14.6171 10.1154 14.2652 8.04204 13.2562 6.35999C13.03 5.98281 12.9169 5.79422 12.8836 5.70068C12.6425 5.02408 13.1725 4.32121 13.8893 4.36704C13.9884 4.37338 14.0587 4.39221 14.1994 4.42989V4.42989C18.2004 5.50196 20.5747 9.61449 19.5027 13.6155C18.4306 17.6165 14.3181 19.9908 10.3171 18.9188V18.9188Z" fill="#222222"/>
<path d="M5.4 10.2L5.4 10.2C5.50137 10.5041 5.55206 10.6562 5.60276 10.7225C5.80288 10.9843 6.19712 10.9843 6.39724 10.7225C6.44794 10.6562 6.49863 10.5041 6.6 10.2L6.6 10.2C6.68177 9.95468 6.72266 9.83201 6.77555 9.72099C6.97291 9.30672 7.30672 8.97291 7.72099 8.77555C7.83201 8.72266 7.95468 8.68177 8.2 8.6L8.2 8.6C8.50412 8.49863 8.65618 8.44794 8.7225 8.39724C8.98431 8.19712 8.98431 7.80288 8.7225 7.60276C8.65618 7.55206 8.50412 7.50137 8.2 7.4L8.2 7.4C7.95468 7.31822 7.83201 7.27734 7.72099 7.22445C7.30672 7.02709 6.97291 6.69329 6.77555 6.27901C6.72266 6.16799 6.68177 6.04532 6.6 5.8C6.49863 5.49588 6.44794 5.34382 6.39724 5.2775C6.19712 5.01569 5.80288 5.01569 5.60276 5.2775C5.55206 5.34382 5.50137 5.49588 5.4 5.8C5.31823 6.04532 5.27734 6.16799 5.22445 6.27901C5.02709 6.69329 4.69329 7.02709 4.27901 7.22445C4.16799 7.27734 4.04532 7.31823 3.8 7.4C3.49588 7.50137 3.34382 7.55206 3.2775 7.60276C3.01569 7.80288 3.01569 8.19712 3.2775 8.39724C3.34382 8.44794 3.49588 8.49863 3.8 8.6C4.04532 8.68177 4.16799 8.72266 4.27901 8.77555C4.69329 8.97291 5.02709 9.30672 5.22445 9.72099C5.27734 9.83201 5.31822 9.95468 5.4 10.2Z" fill="#222222"/>
</svg>
