<svg width="335" height="170" viewBox="0 0 335 170" fill="none" xmlns="http://www.w3.org/2000/svg">
<path d="M313.83 20.14C300.14 8.47 274.88 2.22 254.88 1.22C234.62 0.209997 221.39 0.779997 206.88 6.22C144.5 29.6 135.89 118.37 108.21 128.43C91.28 134.59 81.06 129.53 69.93 126.32C69.61 126.15 69.28 125.99 68.96 125.81C62.51 122.19 57.43 117.05 53.71 110.41C49.98 103.77 48.12 95.72 48.12 86.26C48.12 76.8 49.98 68.75 53.71 62.1C57.43 55.46 62.51 50.32 68.96 46.7C75.4 43.08 82.65 41.26 90.7 41.26C98.15 41.26 105.04 43.07 111.38 46.7C117.72 50.32 123 55.96 127.23 63.61C127.23 63.61 145.95 35.33 152.31 26.46C147.61 21.31 142.07 16.93 135.68 13.33C123 6.19 108.1 2.61 90.99 2.61C73.88 2.61 57.88 6.19 44.19 13.33C30.5 20.48 19.78 30.34 12.03 42.92C4.28002 55.5 0.400024 69.94 0.400024 86.25C0.400024 102.56 4.27002 116.75 12.03 129.43C19.78 142.11 30.5 152.03 44.19 159.17C57.88 166.32 73.48 169.89 90.99 169.89C119.89 171.14 140.72 157.62 153.49 138.49C173.01 109.24 179.11 67.25 208.85 47.91C223.95 37.85 241.15 40.06 249.81 40.06C262.49 40.06 271.9 42.88 278.04 48.52C284.18 54.16 287.25 62.01 287.25 72.07H249.81C233.3 72.07 219.92 74.14 209.65 78.26C199.38 82.39 191.88 88.07 187.15 95.32C182.42 102.57 180.06 111.02 180.06 120.68C180.06 130.34 182.48 138.3 187.31 145.74C192.14 153.19 199.08 159.08 208.14 163.4C217.2 167.73 228.07 169.89 240.75 169.89C255.04 169.89 266.72 167.17 275.78 161.74C281.91 158.06 286.72 153.19 290.27 147.2V167.47H334.35V74.77C334.35 50.01 327.5 31.79 313.82 20.12L313.83 20.14ZM273.67 132.61C267.43 136.34 260.39 138.2 252.54 138.2C244.28 138.2 237.79 136.44 233.06 132.92C228.33 129.4 225.96 124.62 225.96 118.58C225.96 113.14 228.02 108.62 232.15 104.99C236.27 101.37 243.88 99.55 254.95 99.55H287.26V116.16C284.44 123.41 279.91 128.89 273.67 132.62V132.61Z" fill="white"/>
</svg>
